<mxfile host="app.diagrams.net" agent="Mozilla/5.0 (Macintosh; Intel Mac OS X 10_15_7) AppleWebKit/537.36 (KHTML, like Gecko) Chrome/135.0.0.0 Safari/537.36" version="26.2.14">
  <diagram name="Page-1" id="AEWpFWGKpk79oIHc1KeU">
    <mxGraphModel dx="2952" dy="2456" grid="1" gridSize="10" guides="1" tooltips="1" connect="1" arrows="1" fold="1" page="1" pageScale="1" pageWidth="850" pageHeight="1100" math="0" shadow="0">
      <root>
        <mxCell id="0" />
        <mxCell id="1" parent="0" />
        <mxCell id="kW9ZF-bh8QHjpQArmtX6-39" value="" style="rounded=0;whiteSpace=wrap;html=1;" vertex="1" parent="1">
          <mxGeometry x="-550" y="-250" width="1360" height="460" as="geometry" />
        </mxCell>
        <mxCell id="kW9ZF-bh8QHjpQArmtX6-58" value="" style="rounded=0;whiteSpace=wrap;html=1;" vertex="1" parent="1">
          <mxGeometry x="-20" y="-150" width="810" height="330" as="geometry" />
        </mxCell>
        <mxCell id="kW9ZF-bh8QHjpQArmtX6-3" value="" style="endArrow=none;dashed=1;html=1;dashPattern=1 3;strokeWidth=3;rounded=0;" edge="1" parent="1">
          <mxGeometry width="50" height="50" relative="1" as="geometry">
            <mxPoint x="-840" y="250" as="sourcePoint" />
            <mxPoint x="840" y="240" as="targetPoint" />
          </mxGeometry>
        </mxCell>
        <mxCell id="kW9ZF-bh8QHjpQArmtX6-4" value="&lt;font style=&quot;font-size: 26px;&quot; face=&quot;Helvetica&quot;&gt;OFFLINE&lt;/font&gt;" style="text;strokeColor=none;fillColor=none;align=left;verticalAlign=middle;spacingLeft=4;spacingRight=4;overflow=hidden;points=[[0,0.5],[1,0.5]];portConstraint=eastwest;rotatable=0;whiteSpace=wrap;html=1;" vertex="1" parent="1">
          <mxGeometry x="-540" y="270" width="270" height="40" as="geometry" />
        </mxCell>
        <mxCell id="kW9ZF-bh8QHjpQArmtX6-6" value="" style="rounded=0;whiteSpace=wrap;html=1;" vertex="1" parent="1">
          <mxGeometry x="-520" y="440" width="1005" height="460" as="geometry" />
        </mxCell>
        <mxCell id="kW9ZF-bh8QHjpQArmtX6-38" value="" style="edgeStyle=orthogonalEdgeStyle;rounded=0;orthogonalLoop=1;jettySize=auto;html=1;entryX=0;entryY=0.5;entryDx=0;entryDy=0;strokeWidth=5;" edge="1" parent="1" target="kW9ZF-bh8QHjpQArmtX6-8">
          <mxGeometry relative="1" as="geometry">
            <mxPoint x="-60" y="665" as="targetPoint" />
            <mxPoint x="-140" y="665" as="sourcePoint" />
          </mxGeometry>
        </mxCell>
        <mxCell id="kW9ZF-bh8QHjpQArmtX6-7" value="&lt;span style=&quot;font-size: 24px;&quot;&gt;PREPARE TRAINING DATA&amp;nbsp;&lt;/span&gt;" style="rounded=0;whiteSpace=wrap;html=1;" vertex="1" parent="1">
          <mxGeometry x="-380" y="630" width="250" height="70" as="geometry" />
        </mxCell>
        <mxCell id="kW9ZF-bh8QHjpQArmtX6-8" value="&lt;span style=&quot;font-size: 24px;&quot;&gt;TRAIN RANKER MODEL&amp;nbsp;&lt;/span&gt;" style="rounded=0;whiteSpace=wrap;html=1;" vertex="1" parent="1">
          <mxGeometry x="70" y="630" width="250" height="70" as="geometry" />
        </mxCell>
        <mxCell id="kW9ZF-bh8QHjpQArmtX6-9" value="&lt;font style=&quot;font-size: 24px;&quot;&gt;MODEL ARTIFACT&lt;/font&gt;" style="shape=cylinder3;whiteSpace=wrap;html=1;boundedLbl=1;backgroundOutline=1;size=15;" vertex="1" parent="1">
          <mxGeometry x="562.5" y="555" width="165" height="220" as="geometry" />
        </mxCell>
        <mxCell id="kW9ZF-bh8QHjpQArmtX6-10" value="&lt;font style=&quot;font-size: 26px;&quot; face=&quot;Helvetica&quot;&gt;BATCH TRAINING&lt;/font&gt;" style="text;strokeColor=none;fillColor=none;align=left;verticalAlign=middle;spacingLeft=4;spacingRight=4;overflow=hidden;points=[[0,0.5],[1,0.5]];portConstraint=eastwest;rotatable=0;whiteSpace=wrap;html=1;" vertex="1" parent="1">
          <mxGeometry x="-110" y="470" width="270" height="40" as="geometry" />
        </mxCell>
        <mxCell id="kW9ZF-bh8QHjpQArmtX6-50" style="edgeStyle=orthogonalEdgeStyle;rounded=0;orthogonalLoop=1;jettySize=auto;html=1;exitX=1;exitY=0.5;exitDx=0;exitDy=0;exitPerimeter=0;entryX=0;entryY=0.5;entryDx=0;entryDy=0;strokeWidth=5;" edge="1" parent="1" source="kW9ZF-bh8QHjpQArmtX6-30" target="kW9ZF-bh8QHjpQArmtX6-7">
          <mxGeometry relative="1" as="geometry" />
        </mxCell>
        <mxCell id="kW9ZF-bh8QHjpQArmtX6-30" value="&lt;font style=&quot;font-size: 24px;&quot;&gt;EVENT&amp;nbsp; LOG&lt;/font&gt;" style="shape=cylinder3;whiteSpace=wrap;html=1;boundedLbl=1;backgroundOutline=1;size=15;" vertex="1" parent="1">
          <mxGeometry x="-780" y="430" width="165" height="220" as="geometry" />
        </mxCell>
        <mxCell id="kW9ZF-bh8QHjpQArmtX6-31" style="edgeStyle=orthogonalEdgeStyle;rounded=0;orthogonalLoop=1;jettySize=auto;html=1;entryX=0.5;entryY=0;entryDx=0;entryDy=0;entryPerimeter=0;strokeWidth=5;" edge="1" parent="1" source="kW9ZF-bh8QHjpQArmtX6-49" target="kW9ZF-bh8QHjpQArmtX6-30">
          <mxGeometry relative="1" as="geometry">
            <mxPoint x="-550" y="100" as="sourcePoint" />
          </mxGeometry>
        </mxCell>
        <mxCell id="kW9ZF-bh8QHjpQArmtX6-33" value="&lt;font style=&quot;font-size: 24px;&quot;&gt;COLLECT USER LOG&lt;/font&gt;" style="text;strokeColor=none;fillColor=none;align=left;verticalAlign=middle;spacingLeft=4;spacingRight=4;overflow=hidden;points=[[0,0.5],[1,0.5]];portConstraint=eastwest;rotatable=0;whiteSpace=wrap;html=1;" vertex="1" parent="1">
          <mxGeometry x="-830" y="-50" width="270" height="60" as="geometry" />
        </mxCell>
        <mxCell id="kW9ZF-bh8QHjpQArmtX6-51" style="edgeStyle=orthogonalEdgeStyle;rounded=0;orthogonalLoop=1;jettySize=auto;html=1;exitX=1;exitY=0.5;exitDx=0;exitDy=0;exitPerimeter=0;entryX=0;entryY=0.5;entryDx=0;entryDy=0;strokeWidth=5;" edge="1" parent="1" source="kW9ZF-bh8QHjpQArmtX6-37" target="kW9ZF-bh8QHjpQArmtX6-7">
          <mxGeometry relative="1" as="geometry" />
        </mxCell>
        <mxCell id="kW9ZF-bh8QHjpQArmtX6-37" value="&lt;font style=&quot;font-size: 24px;&quot;&gt;OTHER DATA SOURCE&lt;/font&gt;" style="shape=cylinder3;whiteSpace=wrap;html=1;boundedLbl=1;backgroundOutline=1;size=15;" vertex="1" parent="1">
          <mxGeometry x="-780" y="680" width="165" height="220" as="geometry" />
        </mxCell>
        <mxCell id="kW9ZF-bh8QHjpQArmtX6-40" value="&lt;font style=&quot;font-size: 26px;&quot; face=&quot;Helvetica&quot;&gt;ONLINE&lt;/font&gt;" style="text;strokeColor=none;fillColor=none;align=left;verticalAlign=middle;spacingLeft=4;spacingRight=4;overflow=hidden;points=[[0,0.5],[1,0.5]];portConstraint=eastwest;rotatable=0;whiteSpace=wrap;html=1;" vertex="1" parent="1">
          <mxGeometry x="-540" y="-240" width="270" height="40" as="geometry" />
        </mxCell>
        <mxCell id="kW9ZF-bh8QHjpQArmtX6-42" value="&lt;span style=&quot;font-size: 24px;&quot;&gt;REQUEST&lt;/span&gt;" style="rounded=0;whiteSpace=wrap;html=1;" vertex="1" parent="1">
          <mxGeometry y="-80" width="250" height="90" as="geometry" />
        </mxCell>
        <mxCell id="kW9ZF-bh8QHjpQArmtX6-43" value="&lt;span style=&quot;font-size: 24px;&quot;&gt;MODEL PREDICTION&lt;/span&gt;" style="rounded=0;whiteSpace=wrap;html=1;" vertex="1" parent="1">
          <mxGeometry x="520" y="-90" width="250" height="230" as="geometry" />
        </mxCell>
        <mxCell id="kW9ZF-bh8QHjpQArmtX6-44" value="&lt;span style=&quot;font-size: 24px;&quot;&gt;RESPONSE&lt;/span&gt;" style="rounded=0;whiteSpace=wrap;html=1;" vertex="1" parent="1">
          <mxGeometry y="30" width="250" height="100" as="geometry" />
        </mxCell>
        <mxCell id="kW9ZF-bh8QHjpQArmtX6-49" value="&lt;span style=&quot;font-size: 24px;&quot;&gt;USER SEARCH ACTIVITY&lt;/span&gt;" style="rounded=0;whiteSpace=wrap;html=1;" vertex="1" parent="1">
          <mxGeometry x="-470" y="-90" width="250" height="230" as="geometry" />
        </mxCell>
        <mxCell id="kW9ZF-bh8QHjpQArmtX6-35" value="" style="endArrow=classic;html=1;rounded=0;exitX=0.5;exitY=0;exitDx=0;exitDy=0;exitPerimeter=0;strokeWidth=5;" edge="1" parent="1" source="kW9ZF-bh8QHjpQArmtX6-9" target="kW9ZF-bh8QHjpQArmtX6-43">
          <mxGeometry width="50" height="50" relative="1" as="geometry">
            <mxPoint x="-140" y="110" as="sourcePoint" />
            <mxPoint x="642.5" y="230" as="targetPoint" />
          </mxGeometry>
        </mxCell>
        <mxCell id="kW9ZF-bh8QHjpQArmtX6-52" value="" style="endArrow=classic;html=1;rounded=0;strokeWidth=5;" edge="1" parent="1" source="kW9ZF-bh8QHjpQArmtX6-8" target="kW9ZF-bh8QHjpQArmtX6-9">
          <mxGeometry width="50" height="50" relative="1" as="geometry">
            <mxPoint x="-90" y="570" as="sourcePoint" />
            <mxPoint x="-40" y="520" as="targetPoint" />
          </mxGeometry>
        </mxCell>
        <mxCell id="kW9ZF-bh8QHjpQArmtX6-53" value="" style="endArrow=classic;html=1;rounded=0;exitX=1;exitY=0.25;exitDx=0;exitDy=0;strokeWidth=5;" edge="1" parent="1" source="kW9ZF-bh8QHjpQArmtX6-49" target="kW9ZF-bh8QHjpQArmtX6-42">
          <mxGeometry width="50" height="50" relative="1" as="geometry">
            <mxPoint x="-90" y="480" as="sourcePoint" />
            <mxPoint x="-40" y="430" as="targetPoint" />
          </mxGeometry>
        </mxCell>
        <mxCell id="kW9ZF-bh8QHjpQArmtX6-54" value="" style="endArrow=classic;html=1;rounded=0;entryX=0;entryY=0.25;entryDx=0;entryDy=0;exitX=1;exitY=0.5;exitDx=0;exitDy=0;strokeWidth=5;" edge="1" parent="1" source="kW9ZF-bh8QHjpQArmtX6-42" target="kW9ZF-bh8QHjpQArmtX6-43">
          <mxGeometry width="50" height="50" relative="1" as="geometry">
            <mxPoint x="-90" y="480" as="sourcePoint" />
            <mxPoint x="-40" y="430" as="targetPoint" />
          </mxGeometry>
        </mxCell>
        <mxCell id="kW9ZF-bh8QHjpQArmtX6-55" value="" style="endArrow=classic;html=1;rounded=0;entryX=1;entryY=0.5;entryDx=0;entryDy=0;exitX=0;exitY=0.75;exitDx=0;exitDy=0;strokeWidth=5;" edge="1" parent="1" source="kW9ZF-bh8QHjpQArmtX6-43" target="kW9ZF-bh8QHjpQArmtX6-44">
          <mxGeometry width="50" height="50" relative="1" as="geometry">
            <mxPoint x="-90" y="480" as="sourcePoint" />
            <mxPoint x="-40" y="430" as="targetPoint" />
          </mxGeometry>
        </mxCell>
        <mxCell id="kW9ZF-bh8QHjpQArmtX6-56" value="" style="endArrow=classic;html=1;rounded=0;entryX=1;entryY=0.75;entryDx=0;entryDy=0;exitX=0;exitY=0.5;exitDx=0;exitDy=0;strokeWidth=5;" edge="1" parent="1" source="kW9ZF-bh8QHjpQArmtX6-44" target="kW9ZF-bh8QHjpQArmtX6-49">
          <mxGeometry width="50" height="50" relative="1" as="geometry">
            <mxPoint x="-90" y="480" as="sourcePoint" />
            <mxPoint x="-40" y="430" as="targetPoint" />
          </mxGeometry>
        </mxCell>
        <mxCell id="kW9ZF-bh8QHjpQArmtX6-59" value="&lt;span style=&quot;font-size: 26px;&quot;&gt;API&lt;/span&gt;" style="text;strokeColor=none;fillColor=none;align=left;verticalAlign=middle;spacingLeft=4;spacingRight=4;overflow=hidden;points=[[0,0.5],[1,0.5]];portConstraint=eastwest;rotatable=0;whiteSpace=wrap;html=1;" vertex="1" parent="1">
          <mxGeometry x="330" y="-140" width="270" height="40" as="geometry" />
        </mxCell>
      </root>
    </mxGraphModel>
  </diagram>
</mxfile>
